<mxfile host="app.diagrams.net" modified="2023-05-29T00:30:06.758Z" agent="Mozilla/5.0 (Windows NT 10.0; Win64; x64) AppleWebKit/537.36 (KHTML, like Gecko) Chrome/113.0.0.0 Safari/537.36" etag="va_-rKmj9JvMZ2X-v15w" version="21.3.0" type="google">
  <diagram name="Page-1" id="O16oIW7MTGFbL38wEt7E">
    <mxGraphModel dx="1619" dy="1114" grid="1" gridSize="10" guides="1" tooltips="1" connect="1" arrows="1" fold="1" page="1" pageScale="1" pageWidth="827" pageHeight="1169" math="0" shadow="0">
      <root>
        <mxCell id="0" />
        <mxCell id="1" parent="0" />
        <mxCell id="eCMuN70A0XHilftcNr7w-8" style="edgeStyle=orthogonalEdgeStyle;rounded=0;orthogonalLoop=1;jettySize=auto;html=1;exitX=0.5;exitY=1;exitDx=0;exitDy=0;entryX=0.5;entryY=0;entryDx=0;entryDy=0;" parent="1" source="eCMuN70A0XHilftcNr7w-1" target="eCMuN70A0XHilftcNr7w-4" edge="1">
          <mxGeometry relative="1" as="geometry" />
        </mxCell>
        <mxCell id="eCMuN70A0XHilftcNr7w-1" value="1" style="ellipse;whiteSpace=wrap;html=1;aspect=fixed;fillColor=#dae8fc;strokeColor=#6c8ebf;" parent="1" vertex="1">
          <mxGeometry x="360" y="40" width="40" height="40" as="geometry" />
        </mxCell>
        <mxCell id="eCMuN70A0XHilftcNr7w-2" value="&lt;div&gt;void&amp;nbsp;mininum_amount_of_time_AND_sequence&lt;span style=&quot;background-color: initial;&quot;&gt;()&lt;/span&gt;&lt;br&gt;&lt;/div&gt;&lt;div&gt;{&lt;/div&gt;&lt;div&gt;&lt;div&gt;&amp;nbsp; &amp;nbsp; &lt;span style=&quot;background-color: rgb(204, 229, 255);&quot;&gt;degree = vector&amp;lt;int&amp;gt;(number_of_tasks + 1, 0);&lt;/span&gt;&lt;/div&gt;&lt;div&gt;&amp;nbsp; &amp;nbsp; &lt;span style=&quot;background-color: rgb(204, 229, 255);&quot;&gt;visited = vector&amp;lt;bool&amp;gt;(number_of_tasks + 1, false);&lt;/span&gt;&lt;/div&gt;&lt;div&gt;&amp;nbsp; &amp;nbsp; &lt;span style=&quot;background-color: rgb(204, 229, 255);&quot;&gt;visited[first] = true;&lt;/span&gt;&lt;/div&gt;&lt;div&gt;&lt;br&gt;&lt;/div&gt;&lt;div&gt;&amp;nbsp; &amp;nbsp; &lt;span style=&quot;background-color: rgb(204, 229, 255);&quot;&gt;cout &amp;lt;&amp;lt; accumulate(time_.begin(), time_.end(), 1) &amp;lt;&amp;lt; endl;&lt;/span&gt;&lt;/div&gt;&lt;div&gt;&amp;nbsp; &amp;nbsp; &lt;span style=&quot;background-color: rgb(204, 229, 255);&quot;&gt;cout &amp;lt;&amp;lt; first &amp;lt;&amp;lt; endl;&lt;/span&gt;&lt;/div&gt;&lt;div&gt;&lt;br&gt;&lt;/div&gt;&lt;div&gt;&amp;nbsp; &amp;nbsp; // call childs&lt;/div&gt;&lt;div&gt;&amp;nbsp; &amp;nbsp; &lt;span style=&quot;background-color: rgb(248, 206, 204);&quot;&gt;for (size_t i = 0; i &amp;lt; childs[first].size(); ++i)&lt;/span&gt;&lt;/div&gt;&lt;div&gt;&amp;nbsp; &amp;nbsp; &lt;span style=&quot;background-color: rgb(248, 206, 204);&quot;&gt;{&lt;/span&gt;&lt;/div&gt;&lt;div&gt;&amp;nbsp; &amp;nbsp; &amp;nbsp; &amp;nbsp; &lt;span style=&quot;background-color: rgb(213, 232, 212);&quot;&gt;degree[childs[first][i]]++;&lt;/span&gt;&lt;/div&gt;&lt;div&gt;&lt;br&gt;&lt;/div&gt;&lt;div&gt;&amp;nbsp; &amp;nbsp; &amp;nbsp; &amp;nbsp; &lt;span style=&quot;background-color: rgb(255, 230, 204);&quot;&gt;if (degree[childs[first][i]] == (int)parents[childs[first][i]].size())&lt;/span&gt;&lt;/div&gt;&lt;div&gt;&amp;nbsp; &amp;nbsp; &amp;nbsp; &amp;nbsp; &lt;span style=&quot;background-color: rgb(255, 230, 204);&quot;&gt;{&lt;/span&gt;&lt;/div&gt;&lt;div&gt;&amp;nbsp; &amp;nbsp; &amp;nbsp; &amp;nbsp; &amp;nbsp; &amp;nbsp; &lt;span style=&quot;background-color: rgb(255, 229, 153);&quot;&gt;pq.push(childs[first][i]);&lt;/span&gt;&lt;/div&gt;&lt;div&gt;&amp;nbsp; &amp;nbsp; &amp;nbsp; &amp;nbsp; }&lt;/div&gt;&lt;div&gt;&amp;nbsp; &amp;nbsp; }&lt;/div&gt;&lt;div&gt;&lt;br&gt;&lt;/div&gt;&lt;div&gt;&amp;nbsp; &amp;nbsp; &lt;span style=&quot;background-color: rgb(225, 213, 231);&quot;&gt;print_childs(pq.top());&lt;/span&gt;&lt;/div&gt;&lt;/div&gt;&lt;div&gt;}&lt;/div&gt;" style="text;html=1;strokeColor=none;fillColor=none;align=left;verticalAlign=middle;whiteSpace=wrap;rounded=0;" parent="1" vertex="1">
          <mxGeometry x="-90" y="40" width="400" height="440" as="geometry" />
        </mxCell>
        <mxCell id="vyloaUjtzvmTiPER8YvT-3" style="edgeStyle=orthogonalEdgeStyle;rounded=0;orthogonalLoop=1;jettySize=auto;html=1;exitX=1;exitY=0.5;exitDx=0;exitDy=0;entryX=0;entryY=0.5;entryDx=0;entryDy=0;" edge="1" parent="1" source="eCMuN70A0XHilftcNr7w-4" target="eCMuN70A0XHilftcNr7w-5">
          <mxGeometry relative="1" as="geometry" />
        </mxCell>
        <mxCell id="vyloaUjtzvmTiPER8YvT-6" style="edgeStyle=orthogonalEdgeStyle;orthogonalLoop=1;jettySize=auto;html=1;exitX=0;exitY=0.5;exitDx=0;exitDy=0;curved=1;" edge="1" parent="1" source="eCMuN70A0XHilftcNr7w-4" target="eCMuN70A0XHilftcNr7w-15">
          <mxGeometry relative="1" as="geometry">
            <Array as="points">
              <mxPoint x="340" y="140" />
            </Array>
          </mxGeometry>
        </mxCell>
        <mxCell id="eCMuN70A0XHilftcNr7w-4" value="2" style="ellipse;whiteSpace=wrap;html=1;aspect=fixed;fillColor=#f8cecc;strokeColor=#b85450;" parent="1" vertex="1">
          <mxGeometry x="360.00000000000006" y="120" width="40" height="40" as="geometry" />
        </mxCell>
        <mxCell id="eCMuN70A0XHilftcNr7w-10" style="edgeStyle=orthogonalEdgeStyle;rounded=0;orthogonalLoop=1;jettySize=auto;html=1;exitX=1;exitY=0.5;exitDx=0;exitDy=0;entryX=0.5;entryY=0;entryDx=0;entryDy=0;" parent="1" source="eCMuN70A0XHilftcNr7w-5" target="eCMuN70A0XHilftcNr7w-6" edge="1">
          <mxGeometry relative="1" as="geometry">
            <Array as="points">
              <mxPoint x="560" y="140" />
            </Array>
          </mxGeometry>
        </mxCell>
        <mxCell id="eCMuN70A0XHilftcNr7w-5" value="3" style="ellipse;whiteSpace=wrap;html=1;aspect=fixed;fillColor=#D5E8D4;strokeColor=#8C998C;" parent="1" vertex="1">
          <mxGeometry x="479.99999999999994" y="120" width="40" height="40" as="geometry" />
        </mxCell>
        <mxCell id="vyloaUjtzvmTiPER8YvT-4" style="edgeStyle=orthogonalEdgeStyle;rounded=0;orthogonalLoop=1;jettySize=auto;html=1;exitX=0.5;exitY=1;exitDx=0;exitDy=0;entryX=0.5;entryY=0;entryDx=0;entryDy=0;" edge="1" parent="1" source="eCMuN70A0XHilftcNr7w-6" target="vyloaUjtzvmTiPER8YvT-1">
          <mxGeometry relative="1" as="geometry" />
        </mxCell>
        <mxCell id="vyloaUjtzvmTiPER8YvT-5" style="edgeStyle=orthogonalEdgeStyle;orthogonalLoop=1;jettySize=auto;html=1;exitX=0;exitY=0.5;exitDx=0;exitDy=0;entryX=1;entryY=1;entryDx=0;entryDy=0;curved=1;" edge="1" parent="1" source="eCMuN70A0XHilftcNr7w-6" target="eCMuN70A0XHilftcNr7w-4">
          <mxGeometry relative="1" as="geometry">
            <Array as="points">
              <mxPoint x="394" y="250" />
            </Array>
          </mxGeometry>
        </mxCell>
        <mxCell id="eCMuN70A0XHilftcNr7w-6" value="4" style="ellipse;whiteSpace=wrap;html=1;aspect=fixed;fillColor=#ffe6cc;strokeColor=#d79b00;" parent="1" vertex="1">
          <mxGeometry x="540.06" y="230" width="40" height="40" as="geometry" />
        </mxCell>
        <mxCell id="vyloaUjtzvmTiPER8YvT-7" style="edgeStyle=orthogonalEdgeStyle;rounded=0;orthogonalLoop=1;jettySize=auto;html=1;exitX=0.5;exitY=1;exitDx=0;exitDy=0;" edge="1" parent="1" source="eCMuN70A0XHilftcNr7w-15">
          <mxGeometry relative="1" as="geometry">
            <mxPoint x="340" y="320" as="targetPoint" />
          </mxGeometry>
        </mxCell>
        <mxCell id="eCMuN70A0XHilftcNr7w-15" value="6" style="ellipse;whiteSpace=wrap;html=1;aspect=fixed;fillColor=#E1D5E7;strokeColor=#9673a6;" parent="1" vertex="1">
          <mxGeometry x="320" y="200" width="40" height="40" as="geometry" />
        </mxCell>
        <mxCell id="vyloaUjtzvmTiPER8YvT-2" style="edgeStyle=orthogonalEdgeStyle;orthogonalLoop=1;jettySize=auto;html=1;entryX=0.5;entryY=1;entryDx=0;entryDy=0;curved=1;" edge="1" parent="1" source="vyloaUjtzvmTiPER8YvT-1" target="eCMuN70A0XHilftcNr7w-4">
          <mxGeometry relative="1" as="geometry" />
        </mxCell>
        <mxCell id="vyloaUjtzvmTiPER8YvT-1" value="5" style="ellipse;whiteSpace=wrap;html=1;aspect=fixed;fillColor=#FFE599;strokeColor=#d79b00;" vertex="1" parent="1">
          <mxGeometry x="540.06" y="310" width="40" height="40" as="geometry" />
        </mxCell>
      </root>
    </mxGraphModel>
  </diagram>
</mxfile>
